<?xml version="1.0" encoding="utf-8"?>
<!-- Generator: Adobe Illustrator 16.0.3, SVG Export Plug-In . SVG Version: 6.00 Build 0)  -->
<!DOCTYPE svg PUBLIC "-//W3C//DTD SVG 1.1//EN" "http://www.w3.org/Graphics/SVG/1.1/DTD/svg11.dtd">
<svg version="1.1" id="Layer_1" xmlns="http://www.w3.org/2000/svg" xmlns:xlink="http://www.w3.org/1999/xlink" x="0px" y="0px"
	 width="100px" height="100px" viewBox="0 0 100 100" enable-background="new 0 0 100 100" xml:space="preserve">
<g>
	<path fill="#AA66CC" d="M51.061,97.027c0,0,9.994,0.765,10.883,0c0.887-0.76,1.548-2.909,1.548-2.909s-0.095-10.536-0.15-21.423
		L63.3,57.717c0.005-5.314,0.048-8.372,0.163-9.853c0.38-4.814-3.292-8.744-3.927-9.251c-0.636-0.507-1.015-1.646-1.015-2.66
		c0-1.014-2.408-25.975-2.408-25.975s-0.086-0.444,0.062-0.444c0.148,0,0.445-0.148,0.486-0.421c0.041-0.275-0.57-3.062-0.593-3.422
		c-0.02-0.358,0.552-0.275,0.552-0.275s0,0,0.38-0.506c0.38-0.508-0.38-1.395-0.634-1.901c-0.255-0.507-5.308-0.887-5.308-0.887
		s-5.053,0.38-5.306,0.887C45.5,3.515,44.741,4.402,45.121,4.91c0.38,0.506,0.38,0.506,0.38,0.506s0.571-0.083,0.549,0.275
		c-0.021,0.36-0.633,3.146-0.591,3.422c0.042,0.273,0.339,0.421,0.487,0.421c0.147,0,0.062,0.444,0.062,0.444
		S43.6,34.94,43.6,35.954c0,1.014-0.38,2.153-1.014,2.66c-0.634,0.507-4.308,4.437-3.928,9.251
		c0.264,3.342,0.148,25.361,0.053,37.885l-0.073,7.389c-0.005,0.455-0.008,0.979-0.008,0.979s0.661,2.149,1.548,2.909
		C41.065,97.792,51.061,97.027,51.061,97.027"/>
	<path fill="#AA66CC" d="M63.327,68.499"/>
</g>
</svg>
