<?xml version="1.0" encoding="utf-8"?>
<!-- Generator: Adobe Illustrator 16.0.3, SVG Export Plug-In . SVG Version: 6.00 Build 0)  -->
<!DOCTYPE svg PUBLIC "-//W3C//DTD SVG 1.1//EN" "http://www.w3.org/Graphics/SVG/1.1/DTD/svg11.dtd">
<svg version="1.1" id="Your_Icon" xmlns="http://www.w3.org/2000/svg" xmlns:xlink="http://www.w3.org/1999/xlink" x="0px" y="0px"
	 width="64px" height="64.006px" viewBox="0 -15.503 64 64.006" enable-background="new 0 -15.503 64 64.006" xml:space="preserve">
<g>
	<path fill="#FF8800" d="M5,3c1.467,0,2.688,1.052,2.949,2.443C10.091,2.166,13.792,0,18,0h24c6.628,0,12,5.373,12,12h4
		c2.209,0,4,1.791,4,4v1h-3.378c0.135,0.525,0.235,1.063,0.299,1.614L64,22l-2,4H49c-2.079,0-3.788-1.587-3.98-3.616
		c-0.258,0.15-0.521,0.291-0.793,0.423L42,28l3,5h-4l-4-5v-4H18c-0.425,0-0.844-0.021-1.258-0.064L15,28l3,5h-4l-4-5v-7.057
		C7.545,18.747,6,15.554,6,12c0-0.734,0.066-1.453,0.192-2.151C5.327,10.567,4.214,11,3,11H0V9h3c0.351,0,0.688-0.06,1-0.17
		C2.835,8.417,2,7.307,2,6C2,4.343,3.343,3,5,3L5,3z M5,5C4.448,5,4,5.448,4,6c0,0.553,0.448,1,1,1c0.553,0,1-0.447,1-1
		C6,5.448,5.553,5,5,5L5,5z"/>
</g>
</svg>
