<?xml version="1.0" encoding="utf-8"?>
<!-- Generator: Adobe Illustrator 16.0.3, SVG Export Plug-In . SVG Version: 6.00 Build 0)  -->
<!DOCTYPE svg PUBLIC "-//W3C//DTD SVG 1.1//EN" "http://www.w3.org/Graphics/SVG/1.1/DTD/svg11.dtd">
<svg version="1.1" id="Ebene_1" xmlns="http://www.w3.org/2000/svg" xmlns:xlink="http://www.w3.org/1999/xlink" x="0px" y="0px"
	 width="70.87px" height="70.87px" viewBox="0 0 70.87 70.87" enable-background="new 0 0 70.87 70.87" xml:space="preserve">
<g>
	<path fill="#669A2F" d="M8.524,39.503l0.185,0.82H8.77l0.174-0.79l3.25-10.91h3.158l-5.076,14.929H7.201L2.136,28.624h3.158
		L8.524,39.503z"/>
	<path fill="#669A2F" d="M25.33,36.99h-5.537v4.266h6.583v2.297h-9.577V28.624h9.557v2.307h-6.563v3.753h5.537V36.99z"/>
	<path fill="#669A2F" d="M39.922,41.513c-0.465,0.608-1.16,1.137-2.082,1.585c-0.924,0.447-2.113,0.671-3.568,0.671
		c-1.805,0-3.281-0.567-4.43-1.702s-1.723-2.607-1.723-4.42V34.53c0-1.805,0.557-3.276,1.671-4.414
		c1.114-1.139,2.546-1.708,4.296-1.708c1.826,0,3.224,0.433,4.195,1.297s1.438,2.018,1.404,3.46l-0.021,0.062h-2.818
		c0-0.793-0.23-1.41-0.688-1.851c-0.458-0.44-1.125-0.661-2-0.661c-0.916,0-1.654,0.354-2.215,1.062
		c-0.561,0.707-0.841,1.618-0.841,2.732v3.137c0,1.129,0.287,2.048,0.861,2.759s1.343,1.066,2.308,1.066
		c0.71,0,1.272-0.071,1.687-0.216c0.413-0.143,0.733-0.324,0.958-0.543v-2.892h-2.871V35.75h5.876V41.513z"/>
	<path fill="#669A2F" d="M50.246,40.334h-4.84l-1.004,3.219h-3.127l5.033-14.929h3.066l5.014,14.929h-3.127L50.246,40.334z
		 M46.145,37.985h3.375l-1.652-5.26h-0.061L46.145,37.985z"/>
	<path fill="#669A2F" d="M67.895,43.553H64.9l-6.02-10.069l-0.061,0.01v10.059h-2.994V28.624h2.994l6.018,10.059l0.063-0.011V28.624
		h2.994V43.553z"/>
</g>
<g>
</g>
<g>
</g>
<g>
</g>
<g>
</g>
<g>
</g>
<g>
</g>
</svg>
