<?xml version="1.0" encoding="utf-8"?>
<!-- Generator: Adobe Illustrator 16.0.3, SVG Export Plug-In . SVG Version: 6.00 Build 0)  -->
<!DOCTYPE svg PUBLIC "-//W3C//DTD SVG 1.1//EN" "http://www.w3.org/Graphics/SVG/1.1/DTD/svg11.dtd">
<svg version="1.1" id="Your_Icon" xmlns="http://www.w3.org/2000/svg" xmlns:xlink="http://www.w3.org/1999/xlink" x="0px" y="0px"
	 width="100px" height="100px" viewBox="0 0 100 100" enable-background="new 0 0 100 100" xml:space="preserve">
<path fill="#669900" d="M40.104,94.854h15.987c0,0-3.521,8.676,9.063-21.709c33.931-21.692,23.717-40.884,21.84-67.792
	C57.098,9.247,47.721,26.468,48.277,53.516c7.383-2.774,14.167-6.946,17.717-9.993c-2.917-5.569-4.567-6.685-9.877-10.606
	c5.893,1.126,10.708,5.68,12.869,7.326c1.654-2.026,3.361-7.74,3.361-7.74s-5.371-6.495-10.977-10.107
	c4.818-0.106,10.09,5.475,12.438,6.675c0.116-0.371,1.308-3.795,2.476-6.591c-1.42-2.544-2.681-3.798-5.795-6.534
	c3.907,1.52,5.497,2.788,6.889,3.9c0.695-1.46,4.524-8.17,7.618-11.044c-7.287,17.839,6.314,41.925-31.303,56.595
	c-3.5,10.041-5.084,15.297-5.084,15.297s-1.329,0.007-1.756-0.018L25.288,22.874H9L40.104,94.854z"/>
</svg>
